# xmcd CD database file
#
# Track frame offsets:
#	150
#	23717
#	52134
#	78929
#	104125
#	139851
#	171582
#	202466
#	228550
#	257678
#
# Disc length: 3839 seconds
#
# Revision: 0
# Processed by: cddbd v1.5.2PL0 Copyright (c) Steve Scherf et al.
# Submitted via: CDex 1.51
#
DISCID=990efd0a
DTITLE=Rachel Z - I Will Possess Your Heart
DYEAR=2009
DGENRE=Jazz
TTITLE0=There Is A Light That Never Goes Out
TTITLE1=Angry Chair
TTITLE2=Lost!
TTITLE3=Prelude To A Kiss
TTITLE4=In Your Room
TTITLE5=I Will Possess Your Heart
TTITLE6=Heart Of Gold
TTITLE7=Det Tar Tid
TTITLE8=Sour Girl
TTITLE9=When You Were Young
EXTD=YEAR: 2009
EXTT0=
EXTT1=
EXTT2=
EXTT3=
EXTT4=
EXTT5=
EXTT6=
EXTT7=
EXTT8=
EXTT9=
PLAYORDER=
